<?xml version="1.0" encoding="iso-8859-1"?>
<!-- Generator: Adobe Illustrator 19.0.0, SVG Export Plug-In . SVG Version: 6.00 Build 0)  -->
<svg version="1.1" id="Layer_1" xmlns="http://www.w3.org/2000/svg" xmlns:xlink="http://www.w3.org/1999/xlink" x="0px" y="0px"
	 viewBox="0 0 512 512" style="enable-background:new 0 0 512 512;" xml:space="preserve">
<path style="fill:#F63341;" d="M506.365,202.453c-9.946-46.712-33.049-91.184-69.336-127.471
	c-99.977-99.977-262.071-99.977-362.046,0s-99.977,262.071,0,362.046c36.287,36.287,80.759,59.39,127.471,69.336L506.365,202.453z"
	/>
<path style="fill:#9D2422;" d="M506.365,202.453L385.729,81.824l-47.321,256.585l-256.584,47.32l120.631,120.637
	c81.989,17.457,170.886-5.647,234.576-69.336S523.823,284.443,506.365,202.453z"/>
<path style="fill:#B1EAE5;" d="M346.278,346.278c75.342-75.342,96.444-179.155,53.786-244.686
	c-5.602-11.056-13.921-20.937-24.785-28.544l-53.808,57.44l-35.573,70.209c12.509,8.759,26.697,13.31,40.9,13.988
	c-7.863,24.028-23.051,48.192-43.486,68.628l15.741,47.223L346.278,346.278z"/>
<rect x="239.011" y="110.594" transform="matrix(-0.5736 0.8192 -0.8192 -0.5736 602.9833 -59.3138)" style="fill:#FFFFFF;" width="155.838" height="33.394"/>
<path style="fill:#7DDCD4;" d="M346.278,346.278l-62.965-62.965c-20.436,20.436-44.601,35.623-68.628,43.486
	c-0.678-14.203-5.229-28.391-13.988-40.9l-70.209,35.573l-57.44,53.808c7.606,10.862,17.486,19.182,28.542,24.784
	C167.123,442.722,270.936,421.622,346.278,346.278z"/>
<rect x="110.594" y="239.012" transform="matrix(-0.5736 -0.8192 0.8192 -0.5736 -59.3145 602.9836)" style="fill:#B1EAE5;" width="33.394" height="155.838"/>
<g>
</g>
<g>
</g>
<g>
</g>
<g>
</g>
<g>
</g>
<g>
</g>
<g>
</g>
<g>
</g>
<g>
</g>
<g>
</g>
<g>
</g>
<g>
</g>
<g>
</g>
<g>
</g>
<g>
</g>
</svg>
