<?xml version="1.0"?>
<svg xmlns="http://www.w3.org/2000/svg" xmlns:xlink="http://www.w3.org/1999/xlink" viewBox="0 0 512 512"><defs><linearGradient id="linear-gradient" x1="38.684" y1="518.684" x2="463.918" y2="93.451" gradientUnits="userSpaceOnUse"><stop offset="0" stop-color="#ee83ef"/><stop offset="1" stop-color="#41dfd0"/></linearGradient></defs><g id="gradient"><path d="M400,184a64,64,0,1,0-64-64A64.072,64.072,0,0,0,400,184Zm48-64a48.07,48.07,0,0,1-40,47.321V156.48a27.417,27.417,0,0,0,4.423-1.747,20.945,20.945,0,0,0,0-37.466l-17.69-8.845a4.944,4.944,0,0,1,0-8.844,11.834,11.834,0,0,1,10.534,0l7.155,3.577a8,8,0,1,0,7.156-14.31l-7.155-3.578A27.417,27.417,0,0,0,408,83.52V72.679A48.07,48.07,0,0,1,448,120ZM392,72.679V83.52a27.417,27.417,0,0,0-4.423,1.747,20.945,20.945,0,0,0,0,37.466l17.69,8.845a4.944,4.944,0,0,1,0,8.844,11.834,11.834,0,0,1-10.534,0l-7.155-3.577a8,8,0,0,0-7.156,14.31l7.155,3.578A27.417,27.417,0,0,0,392,156.48v10.841a47.991,47.991,0,0,1,0-94.642ZM264,368H208a8,8,0,0,0-8,8v64a8,8,0,0,0,8,8h56a8,8,0,0,0,8-8V376A8,8,0,0,0,264,368Zm-8,16v16H216V384Zm-40,48V416h40v16Zm-56-64H104a8,8,0,0,0-8,8v64a8,8,0,0,0,8,8h56a8,8,0,0,0,8-8V376A8,8,0,0,0,160,368Zm-8,16v16H112V384Zm-40,48V416h40v16Zm352,48V328a8,8,0,0,0-1.6-4.8l-72-96A8,8,0,0,0,384,224H291.314L320,195.314V208h16V176a8,8,0,0,0-8-8H296v16h12.686L272,220.686l-71.171-71.171A64.016,64.016,0,1,0,80,120c0,.909.022,1.813.061,2.712a47.891,47.891,0,0,0-26.619,23.079A32,32,0,0,0,64,208h64a32.048,32.048,0,0,0,31.415-25.931,63.6,63.6,0,0,0,32.132-19.208L252.686,224H128a8,8,0,0,0-6.4,3.2l-72,96A8,8,0,0,0,48,328V480H16v16H496V480ZM128,192H64a16,16,0,0,1-3.261-31.665A8,8,0,0,0,66.5,155.6a32.005,32.005,0,0,1,59.01,0,8,8,0,0,0,5.756,4.731A16,16,0,0,1,128,192Zm30.3-26.206a32.181,32.181,0,0,0-19.745-20A47.9,47.9,0,0,0,96,120a48,48,0,1,1,92.757,17.443l-31.1-31.1-11.314,11.314,33.865,33.865A47.65,47.65,0,0,1,158.3,165.794ZM440,320H328l56-74.667Zm-176,0,12-16h44l-12,16Zm40-80-12,16H248l12-16Zm28,48H288l12-16h44Zm-64,0H224l12-16h44Zm88-32H312l12-16h44Zm-128,0H184l12-16h44Zm-12,16-12,16H160l12-16Zm-76,16H96l12-16h44Zm-12,16-12,16H72l12-16Zm20,0h44l-12,16H136Zm64,0h44l-12,16H200Zm-80-64h44l-12,16H120ZM64,336H304V480H64ZM408,448H360V384h48Zm-56,32V464h64v16Zm80,0V456a8,8,0,0,0-8-8V376a8,8,0,0,0-8-8H352a8,8,0,0,0-8,8v72a8,8,0,0,0-8,8v24H320V336H448V480ZM104.319,50.075,94.61,28.126l14.633-6.472L118.952,43.6ZM63.6,119.4,39.74,116.836l1.711-15.908,23.862,2.565Zm182.946,19.671-23.862-2.565L224.4,120.6l23.863,2.565Zm-48.91-78.963-12.922-9.436L198.87,31.291l12.922,9.436Z" style="fill:url(#linear-gradient)"/></g></svg>
