<svg version="1" xmlns="http://www.w3.org/2000/svg" width="933.333" height="933.333" viewBox="0 0 700.000000 700.000000"><path d="M139.3 33.9c-4.6 2.1-8.6 4.1-9 4.4-.6.7.2 2.9 6.2 16.2 1.7 3.8 3.7 8.5 4.4 10.2.8 1.8 1.7 3.3 2.1 3.3 1 0 17.8-7.5 18.6-8.3.9-.9-11.8-29.7-13-29.6-.6 0-4.8 1.7-9.3 3.8zM265 52.2c-3.6 5-7 9.6-7.5 10.2-2.5 2.7-4.6 6.9-3.8 7.6.4.4 4.3 3.3 8.6 6.5 7.4 5.4 7.9 5.6 9.2 3.8 5.7-7.4 17.5-24.1 17.5-24.6S272.5 43 271.8 43c-.1 0-3.2 4.1-6.8 9.2zM187.9 77.2c-42.9 4.2-76.4 39.8-78.4 83.3-.2 3.3-.3 6.3-.4 6.7-.1.3-2.7 1.8-5.8 3.3-10.6 4.8-20.4 13.3-27 23.5-2.7 4.3-4.6 6-8 7.4-2.5 1-7 4.3-10.2 7.2-9.2 8.5-14.2 19.8-14.2 31.9 0 19.6 12.7 36.5 31.6 42.1 5.3 1.5 11.4 1.7 54.5 1.8 53.2.1 56.8-.2 66.5-5.9 9.6-5.6 14.8-11.8 19.4-23 2.7-6.7 2.8-6.8 8.1-8.5 11.8-3.7 23.4-10.5 32.8-19.4l5.2-4.9 41.5 41.4c22.8 22.7 41.3 41.5 41.1 41.7-.2.1-38.8.3-85.8.3-79.1-.1-85.6.1-88.6 1.7-2.3 1.2-11.8 13.1-31.3 39.2-15.4 20.6-28.9 38.6-29.9 40-23.2 30.6-43 57.7-43.1 58.9-.1.9-.2 48.3-.3 105.3 0 57-.4 103.9-.8 104.3-.4.4-10.1.7-21.7.7h-21l-.3 5.1c-.2 2.9-.1 7.8 0 10.9l.4 5.8h655.7l.3-9c.5-14 2.7-12.7-21.6-12.8-11.4-.1-21.1-.4-21.5-.7-.3-.4-.6-47.8-.7-105.3 0-106.8 0-106.5-3.6-110.4-.7-.7-6.5-8.3-12.8-16.8-6.3-8.5-11.7-15.7-12-16-.3-.3-17.1-22.6-37.3-49.7-28.5-38-37.5-49.4-39.8-50.2-1.8-.6-17.1-1-39.7-1-20.2 0-48.8-.1-63.7-.1h-27l18.9-18.9c10.5-10.5 19.3-18.8 19.6-18.6.4.2.6 3.8.5 7.9-.1 4.2.1 7.7.4 7.7.3.1 5 .2 10.4.3 7.9.1 10-.2 10.6-1.4.4-.8.7-11.4.6-23.5-.2-31.3 1.3-29.8-30.7-29.9-12.3-.1-22.7 0-23.3.1-.8.3-1.2 17.3-.6 21.3.1.4 3.9.6 8.6.5l8.6-.1-24.8 24.8c-13.6 13.7-25.1 24.7-25.6 24.5-.4-.1-22.4-21.8-48.8-48.1l-48.1-48 2.2-5.2c12-29 9.4-58-7.6-83.9-17.5-26.8-48.9-41.6-81.5-38.3zM207 99.4c19.3 2.6 39.2 17.1 48 34.9 5.3 10.9 7.3 19.1 7.2 30.2-.1 9.8-.4 11.5-2.7 18.5l-1.5 4.7-20.8-20.9c-11.4-11.4-21.1-20.8-21.5-20.8-.5 0-4.2 3.3-8.2 7.3l-7.4 7.3 23.2 23.3 23.1 23.2-4.4 4.2c-6.3 5.9-10.7 9-17 11.9-8.4 3.9-8.1 4-11.2-2.4-3.8-7.4-11.9-15.6-19.1-19.1-3.5-1.7-6.2-3.8-7.1-5.6-2.5-4.8-10.5-13.9-15.4-17.6-2.6-1.9-5.2-3.8-5.7-4.3-5.4-4.4-23.6-10-33.2-10.2-2.1 0-2.2-.3-1.7-5.8 2.7-29.8 27.5-55.7 56.4-58.8 3-.4 5.6-.7 5.7-.8.3-.3 9.5.3 13.3.8zm-65 87.8c11 2.9 23.1 12.5 27.7 21.9 3.3 6.6 5.4 8.6 10.9 10.5 6.6 2.2 9.9 4.7 12.8 9.7 5 8.6 4.2 18.3-2 25.5-6.5 7.6-6 7.5-58.4 7.7-25.6 0-48.2-.3-50.3-.7-5.8-1.3-11.1-5.3-14.1-10.8-6.7-12.3-.6-26.9 13.3-31.5 4.7-1.5 10.1-6.2 10.1-8.6 0-1.7 5.5-9.2 9.5-13.1 9.8-9.5 27.2-14.1 40.5-10.6zm97.4 142c-.4.7-3.9 5.7-7.8 11l-7.1 9.7-30.3.1h-30.4l4.1-5.3c4.9-6.3 4.8-6.1 9.1-11.9l3.5-4.7 29.8-.1c23.6 0 29.7.3 29.1 1.2zm87.4.6c-.7 1-4.4 5.9-8.1 11l-6.9 9.2h-59.9l2.2-3.3c1.3-1.7 4.9-6.7 8.1-11l5.9-7.7h30c28.6 0 30 .1 28.7 1.8zm88-1c-.1.4-3.7 5.4-7.8 11l-7.5 10.1-30.3.1h-30.4l2.6-3.3c3.2-3.9 3-3.7 9.1-12l4.9-6.7h29.9c16.4 0 29.7.4 29.5.8zm87.1.9c-2.3 2.9-2.7 3.5-9 12l-6.1 8.3h-30c-23.7 0-29.8-.3-29.2-1.3.4-.6 4.1-5.6 8.1-11l7.4-9.7h30.1c28.4 0 30 .1 28.7 1.7zm61.4 56.7c20.7 27.7 37.7 50.5 37.7 50.7 0 .6-150.8.5-151.4-.1-.5-.5 74.5-101 75.4-101 .3 0 17.5 22.7 38.3 50.4zm-356.6-14c.3.2-3.1 5.1-7.4 10.8l-7.9 10.3-29.7.1c-16.3.1-29.7-.1-29.7-.3 0-.2 3.4-5 7.5-10.6l7.6-10.2 20.7-.5c21.9-.5 38.2-.4 38.9.4zm87.5-.1c.4.1-2.9 5-7.3 10.8l-7.9 10.7-30-.1c-21.5 0-29.7-.3-29.3-1.1.4-.6 4-5.5 8-10.8l7.3-9.7 7.3-.3c7.8-.3 50.8.1 51.9.5zm87.6.1c.2.3-3.1 5.1-7.5 10.8l-7.8 10.3-29.8.1c-16.3.1-29.7 0-29.7-.3s3.5-5.2 7.8-10.9l7.7-10.3 7.5-.3c10.5-.4 51.2.1 51.8.6zm87.8-.2c.1.2-3.3 5.1-7.7 10.9l-8 10.6H424c-21.9 0-29.8-.3-29.3-1.1.4-.6 4-5.5 8-10.8l7.3-9.7 7.8-.3c8.9-.3 51.4 0 51.8.4zM174 416.3c0 1.2-10.2 14.7-14.5 19.2-1.9 2-2.9 2-30.5 2-17.7 0-28.6-.4-28.7-1-.4-1.7 13.7-20 15.8-20.5 3.4-.8 57.9-.6 57.9.3zm86.8.2c.4 1.6-14.1 20.5-15.8 20.6-.8.1-14.4.2-30.2.2-18.8.1-28.4-.1-28-.8 1.9-3.3 15.3-20.4 16.2-20.7 2.5-.8 57.5-.1 57.8.7zm88.2-.3c0 .4-3.5 5.3-7.8 11l-7.7 10.3h-29.4c-16.1 0-29.4-.2-29.6-.5-.2-.3 3.2-5.3 7.5-11l7.8-10.5h29.6c16.3 0 29.6.3 29.6.7zm87.3 0c.3 1-14.6 20.8-15.8 20.9-.5 0-14.1.2-30.2.3-19.6.1-28.9-.2-28.5-.9.3-.5 2.2-3.1 4.1-5.6 2-2.6 4.5-5.9 5.6-7.5 1.1-1.5 3-3.9 4.1-5.3l2.2-2.6h29.1c16 .1 29.2.4 29.4.7zm-20.8 141.5l.1 98.3-2.6.1H89c-1.3-.1-1.5-11.6-1.5-97.9-.1-53.7.3-98 .7-98.3.5-.3 74.3-.5 164.1-.5l163.2.1v98.2zm197 0V656l-5 .1c-8.7.2-15.6 0-16.3-.5-.4-.2-.7-8.1-.6-17.6.1-15.9-.1-17.4-2-20.3-1.2-1.8-3.5-3.6-5.1-4.1-1.7-.6-3.2-1.1-3.4-1.3-.2-.1-.4-23.1-.5-51-.1-47.3-.2-51-1.9-53.5-1-1.4-3.2-3.1-4.9-3.7-4.5-1.6-92.8-1.5-96.2.1-1.4.6-3.4 2.3-4.3 3.7-1.7 2.4-1.8 6.6-2 52.6-.2 57.4-.1 52.8-1.1 52.1-1.6-1-7.3 3.5-8.6 6.7-.9 2.2-1.3 8.2-1.2 19.5 0 9-.3 16.6-.7 16.9-1.2.7-19.8.6-20.5-.2-1-1-.9-194.9 0-195.6.5-.3 39.9-.5 87.6-.5l86.7.1v98.2zm-54.6 10.7c.1 34-.2 43.5-1.1 43.8-1.1.4-62.1.3-63.9-.1-.4 0-.7-19.7-.7-43.6V525H557.9v43.4zm10.9 76.8c.2 9.8.1 10.8-1.5 10.9h-82.4l-3.6-.1-.2-10.1c0-5.5.1-10.4.3-10.8.3-.3 19.9-.6 43.8-.6h43.3l.3 10.7z"/><path d="M136.3 505.1c-1.7 1.1-3.6 3.3-4.1 4.9-.6 1.7-1 20.6-.9 49.3.2 44.9.3 46.6 2.2 48.7 4.1 4.6 4.8 4.6 48.2 4.5H223l3.2-3.3 3.3-3.2v-47.4c0-39.6-.2-47.7-1.5-50-2.9-5.5-3.4-5.6-47.7-5.6-39.3 0-40.9.1-44 2.1zm71.5 30.9l-.2 11H153v-22h55l-.2 11zm-1.1 33c.8 0 1.1 3.3 1.1 10.8v10.7l-27.4.1H153v-21.5l5.3-.3c3.9-.2 40.7-.1 48.4.2zM278.9 504.7c-5.4 3.3-5.3 2.2-5.4 52.7 0 43.3.1 47.1 1.8 49.8 3.2 5.3 4.6 5.5 48.2 5.3 25.8-.1 40.9-.6 42.6-1.3 5.7-2.3 5.8-3.5 5.8-53.7 0-50.1 0-49.9-5.9-53-4.5-2.3-83.3-2.2-87.1.2zM350 536v11h-54.6l-.1-11-.1-11H350v11zm-1.2 32.9c1 .1 1.2 2.7 1 10.8l-.3 10.8-25.5.1c-14 .1-26.2 0-27-.2-1.3-.3-1.6-2.3-1.6-10.9l-.1-10.4 2.6-.3c2.2-.3 47-.2 50.9.1zM534.5 77.7c-23.6 3.5-43.3 15.1-57.8 34.3-21 27.7-22.9 66.6-4.8 97 13.2 22.1 37.4 38.2 62.6 41.7 17.5 2.4 38.7-1.3 53.5-9.5 42.1-23.1 58.3-74.2 36.8-116.6-4.6-9.2-8.5-14.4-17.3-23.1-19.4-19.1-46-27.8-73-23.8zm1.5 28.8v7.4l-4.4 1.9c-6 2.7-11.7 8.1-14.6 13.9-3.4 6.7-3.5 17.8-.2 24.5 3.7 7.6 8.6 11.4 24.5 19.4 11.5 5.8 15 8 15.8 10.1 2.1 5.5-2.2 9.7-9.9 9.6-3.3 0-6.9-1.1-12.2-3.7-4.1-2-8.5-3.6-9.7-3.6-8.7 0-13.9 10-9 17.3 1.3 2 10.3 7.1 17 9.6 2.6 1 2.7 1.3 2.7 7.9 0 3.8-.3 7.1-.6 7.5-.3.3-2.9-.1-5.7-1-27.7-8.1-47.1-32.3-48.1-59.9-.6-15 2.7-27.4 10.1-38.5 5.2-7.7 7.9-10.7 14.6-16.2 7.1-5.8 17.1-10.6 25.7-12.3 1.3-.3 2.7-.7 2.9-1 1-.9 1.1-.1 1.1 7.1zm37.5-2.2c15.7 6.6 29.5 21.9 35.5 39.2 4.3 12.6 4.5 25.4.5 39.3-6.2 21.5-25.9 40.2-47.3 45.1l-4.2.9V214l3.7-1.5c15.2-6.4 22-24.3 14.9-38.9-3.6-7.4-8-10.9-23.3-18.5-7-3.5-13.8-7.3-15-8.4-3-2.7-2.9-6.2.2-9.2 4-4.1 10.6-3.8 20.5 1.1 3.9 1.9 8.4 3.4 10.1 3.4 6.2 0 11.6-6.4 10.4-12.3-1-4.7-4.1-7.5-13-11.8-7.6-3.7-8-4.1-8.5-7.7-.3-2-.3-5.4-.2-7.4l.4-3.6 5.1 1.5c2.9.8 7.5 2.4 10.2 3.6zM56.6 139.2c-.3.7-.4 2-.4 2.8 0 2.4-1.3 13.3-1.8 15.2-.7 2.2.3 2.6 7.7 3.3 3.5.4 7.1.8 7.9 1 .8.2 5 .7 9.3 1.1 6.1.5 7.7.3 7.8-.7 0-.8.2-2.3.3-3.4.2-1.1.7-5.5 1.1-9.8l.7-7.7-3.3-.1c-1.9 0-4.7-.2-6.4-.4-3.6-.4-11.1-1.3-17.8-2.1-3.4-.4-4.8-.1-5.1.8zM306.6 166.7c-.3 1-.8 5.4-1.2 9.8-.3 4.4-.8 8.3-1 8.7-.7 1.2 1 1.7 8.2 2.3 3.8.4 8 .8 9.4 1 10.3 1.5 15 1.6 15.1.3.1-.7.3-2.2.4-3.3.1-1.1.6-5.2 1-9 .4-3.9.9-7.3 1.2-7.8.2-.4-1.1-.7-2.9-.8-1.8 0-4-.2-4.9-.4-.9-.1-4.9-.6-9-.9-4.1-.4-9.3-.9-11.6-1.2-3.4-.4-4.2-.1-4.7 1.3z"/></svg>